<?xml version="1.0" encoding="UTF-8" standalone="no"?>
<svg
   width="100mm"
   height="100mm"
   viewBox="0 0 283.46455 283.46457"
   version="1.2"
   id="svg37"
   sodipodi:docname="abraflexi-imap-import.svg"
   inkscape:version="1.2.2 (b0a8486541, 2022-12-01)"
   xmlns:inkscape="http://www.inkscape.org/namespaces/inkscape"
   xmlns:sodipodi="http://sodipodi.sourceforge.net/DTD/sodipodi-0.dtd"
   xmlns="http://www.w3.org/2000/svg"
   xmlns:svg="http://www.w3.org/2000/svg"
   xmlns:rdf="http://www.w3.org/1999/02/22-rdf-syntax-ns#"
   xmlns:cc="http://creativecommons.org/ns#"
   xmlns:dc="http://purl.org/dc/elements/1.1/">
  <metadata
     id="metadata43">
    <rdf:RDF>
      <cc:Work
         rdf:about="">
        <dc:format>image/svg+xml</dc:format>
        <dc:type
           rdf:resource="http://purl.org/dc/dcmitype/StillImage" />
        <dc:title />
      </cc:Work>
    </rdf:RDF>
  </metadata>
  <defs
     id="defs41">
    <filter
       y="-0.25"
       height="1.5"
       inkscape:menu-tooltip="Darkens the edge with an inner blur and adds a flexible glow"
       inkscape:menu="Shadows and Glows"
       inkscape:label="Dark and Glow"
       style="color-interpolation-filters:sRGB;"
       id="filter989">
      <feGaussianBlur
         stdDeviation="5"
         result="result6"
         id="feGaussianBlur979" />
      <feComposite
         result="result8"
         in="SourceGraphic"
         operator="atop"
         in2="result6"
         id="feComposite981" />
      <feComposite
         result="result9"
         operator="over"
         in2="SourceAlpha"
         in="result8"
         id="feComposite983" />
      <feColorMatrix
         values="1 0 0 0 0 0 1 0 0 0 0 0 1 0 0 0 0 0 1 0 "
         result="result10"
         id="feColorMatrix985" />
      <feBlend
         in="result10"
         mode="normal"
         in2="result6"
         id="feBlend987" />
    </filter>
    <filter
       inkscape:label="Growing Cells"
       inkscape:menu="Overlays"
       inkscape:menu-tooltip="Random rounded living cells like fill"
       style="color-interpolation-filters:sRGB;"
       id="filter2149">
      <feTurbulence
         type="fractalNoise"
         baseFrequency="0.1"
         numOctaves="3"
         result="result7"
         id="feTurbulence2131" />
      <feColorMatrix
         values="0"
         result="result8"
         type="saturate"
         id="feColorMatrix2133" />
      <feColorMatrix
         values="1 0 0 0 0 0 1 0 0 0 0 0 1 0 0 0 0 0 20 -12 "
         result="result6"
         type="matrix"
         id="feColorMatrix2135" />
      <feGaussianBlur
         stdDeviation="2"
         result="result5"
         in="result6"
         id="feGaussianBlur2137" />
      <feColorMatrix
         in="result5"
         values="1 0 0 0 0 0 1 0 0 0 0 0 1 0 0 0 0 0 10 -0.1 "
         result="result0"
         type="matrix"
         id="feColorMatrix2139" />
      <feComposite
         k1="0.8"
         k2="1"
         in2="SourceGraphic"
         operator="arithmetic"
         result="result3"
         in="result0"
         id="feComposite2141"
         k3="0"
         k4="0" />
      <feComposite
         operator="atop"
         in2="result8"
         id="feComposite2143" />
      <feBlend
         mode="normal"
         in2="SourceGraphic"
         result="result9"
         id="feBlend2145" />
      <feComposite
         in="result9"
         in2="SourceGraphic"
         operator="atop"
         result="result2"
         id="feComposite2147" />
    </filter>
    <clipPath
       clipPathUnits="userSpaceOnUse"
       id="clipPath240">
      <path
         d="M 64.09713,512 H 447.9029 c 22.2879,0 30.3701,-2.3206 38.5182,-6.6783 8.1482,-4.3577 14.5429,-10.7524 18.9006,-18.9006 C 509.6794,478.273 512,470.1908 512,447.9029 V 64.09713 C 512,41.80916 509.6794,33.72701 505.3217,25.57886 500.964,17.43071 494.5693,11.03599 486.4211,6.678318 478.273,2.32064 470.1908,0 447.9029,0 H 64.09713 C 41.80916,0 33.72701,2.32064 25.57886,6.678318 17.43071,11.03599 11.03599,17.43071 6.678318,25.57886 2.32064,33.72701 0,41.80916 0,64.09713 V 447.9029 c 0,22.2879 2.32064,30.3701 6.678318,38.5182 4.357672,8.1482 10.752392,14.5429 18.900542,18.9006 8.14815,4.3577 16.2303,6.6783 38.51827,6.6783 z"
         clip-rule="evenodd"
         id="path238" />
    </clipPath>
    <clipPath
       clipPathUnits="userSpaceOnUse"
       id="clipPath246">
      <path
         d="M 0,0 H 512 V 512 H 0 Z"
         id="path244" />
    </clipPath>
    <clipPath
       clipPathUnits="userSpaceOnUse"
       id="clipPath256">
      <path
         d="M 310.6214,362 424.7089,162.0939 H 310.6961 l -57.0086,99.4988 z"
         clip-rule="evenodd"
         id="path254" />
    </clipPath>
    <clipPath
       clipPathUnits="userSpaceOnUse"
       id="clipPath262">
      <path
         d="M 0,0 H 512 V 512 H 0 Z"
         id="path260" />
    </clipPath>
    <clipPath
       clipPathUnits="userSpaceOnUse"
       id="clipPath272">
      <path
         d="M 197.1006,362 83.51535,162.0939 H 197.1006 L 310.6214,362 Z"
         clip-rule="evenodd"
         id="path270" />
    </clipPath>
    <clipPath
       clipPathUnits="userSpaceOnUse"
       id="clipPath278">
      <path
         d="M 0,0 H 512 V 512 H 0 Z"
         id="path276" />
    </clipPath>
  </defs>
  <sodipodi:namedview
     pagecolor="#ffffff"
     bordercolor="#666666"
     borderopacity="1"
     objecttolerance="10"
     gridtolerance="10"
     guidetolerance="10"
     inkscape:pageopacity="0"
     inkscape:pageshadow="2"
     inkscape:window-width="1920"
     inkscape:window-height="1120"
     id="namedview39"
     showgrid="false"
     inkscape:zoom="2"
     inkscape:cx="235"
     inkscape:cy="279.75"
     inkscape:window-x="0"
     inkscape:window-y="0"
     inkscape:window-maximized="1"
     inkscape:current-layer="svg37"
     units="mm"
     width="100mm"
     showguides="true"
     inkscape:guide-bbox="true"
     inkscape:showpageshadow="2"
     inkscape:pagecheckerboard="0"
     inkscape:deskcolor="#d1d1d1"
     inkscape:document-units="mm" />
  <g
     id="g295"
     transform="matrix(0.55029292,0,0,-0.55029292,0.85729132,282.60727)">
    <g
       id="g232" />
    <g
       id="g234">
      <g
         id="g236"
         clip-path="url(#clipPath240)">
        <g
           id="g242"
           clip-path="url(#clipPath246)">
          <path
             d="M -1,513 H 513 V -1 H -1 Z"
             style="fill:#f6b102;fill-opacity:1;fill-rule:nonzero;stroke:none"
             id="path248" />
        </g>
      </g>
    </g>
    <g
       id="g250">
      <g
         id="g252"
         clip-path="url(#clipPath256)">
        <g
           id="g258"
           clip-path="url(#clipPath262)">
          <path
             d="M 252.6875,363 H 425.7089 V 161.0939 H 252.6875 Z"
             style="fill:#fdebbf;fill-opacity:1;fill-rule:nonzero;stroke:none"
             id="path264" />
        </g>
      </g>
    </g>
    <g
       id="g266">
      <g
         id="g268"
         clip-path="url(#clipPath272)">
        <g
           id="g274"
           clip-path="url(#clipPath278)">
          <path
             d="M 82.51535,363 H 311.6214 V 161.0939 H 82.51535 Z"
             style="fill:#ffffff;fill-opacity:1;fill-rule:nonzero;stroke:none"
             id="path280" />
        </g>
      </g>
    </g>
  </g>
  <g
     id="g467"
     transform="matrix(0.49073734,0,0,0.49073734,70.377256,149.58428)">
    <path
       inkscape:connector-curvature="0"
       d="m 250.68872,151.05513 h -42.73733 v 14.24579 h 42.73733 z m 19.81054,-33.61112 -21.79159,-21.81385 c -1.00166,-1.00166 -2.35946,-1.55813 -3.78404,-1.55813 h -1.3578 v 28.49156 h 28.49156 v -1.35781 c 0,-1.40232 -0.55647,-2.76012 -1.55813,-3.76177 z m -34.05632,6.90029 V 94.07203 h -44.51805 c -2.96045,0 -5.34216,2.38171 -5.34216,5.34217 v 103.28188 c 0,2.96046 2.38171,5.34217 5.34216,5.34217 h 74.79033 c 2.96046,0 5.34217,-2.38171 5.34217,-5.34217 v -73.00961 h -30.27227 c -2.9382,0 -5.34218,-2.40397 -5.34218,-5.34217 z M 200.8285,110.09853 c 0,-0.98385 0.79688,-1.78073 1.78072,-1.78073 h 17.80722 c 0.98385,0 1.78073,0.79688 1.78073,1.78073 v 3.56144 c 0,0.98384 -0.79688,1.78072 -1.78073,1.78072 h -17.80722 c -0.98384,0 -1.78072,-0.79688 -1.78072,-1.78072 z m 0,14.24577 c 0,-0.98385 0.79688,-1.78071 1.78072,-1.78071 h 17.80722 c 0.98385,0 1.78073,0.79686 1.78073,1.78071 v 3.56144 c 0,0.98386 -0.79688,1.78073 -1.78073,1.78073 h -17.80722 c -0.98384,0 -1.78072,-0.79687 -1.78072,-1.78073 z m 56.98312,67.66745 c 0,0.98385 -0.79688,1.78072 -1.78073,1.78072 h -17.80723 c -0.98385,0 -1.78072,-0.79687 -1.78072,-1.78072 v -3.56145 c 0,-0.98385 0.79687,-1.78072 1.78072,-1.78072 h 17.80723 c 0.98385,0 1.78073,0.79687 1.78073,1.78072 z m 0,-44.51806 v 21.36867 c 0,1.9677 -1.59376,3.56144 -3.56146,3.56144 h -49.86022 c -1.9677,0 -3.56144,-1.59374 -3.56144,-3.56144 v -21.36867 c 0,-1.96769 1.59374,-3.56144 3.56144,-3.56144 h 49.86022 c 1.9677,0 3.56146,1.59375 3.56146,3.56144 z"
       id="path929"
       style="stroke-width:0.22259" />
    <g
       transform="matrix(-1.7039389,1.0513107,-1.0513107,-1.7039389,227.64961,260.54803)"
       id="g2236">
      <title
         id="title2233">Layer 1</title>
      <path
         style="fill:#7fff00;fill-rule:evenodd;stroke:#333333;stroke-width:1.80091;stroke-linecap:round;stroke-linejoin:round"
         inkscape:connector-curvature="0"
         d="M 54.659,51.7509 C 40.969799,21.7231 17.786699,28.7885 17.565799,28.7885 v 9.935598 L 4.207919,22.716699 17.6762,9.24837 v 10.046029 c 0,0 32.125298,-7.506899 36.9828,32.456501 z"
         id="path968" />
    </g>
    <path
       inkscape:connector-curvature="0"
       d="m 57.408409,144.1993 h 35.144009 c 1.941702,0 3.5144,-1.57269 3.5144,-3.5144 v -3.51439 c 0,-1.94171 -1.572698,-3.51442 -3.5144,-3.51442 H 57.408409 c -1.941706,0 -3.514399,1.57271 -3.514399,3.51442 v 3.51439 c 0,1.94171 1.572693,3.5144 3.514399,3.5144 z m -3.514399,17.57201 c 0,1.94171 1.572693,3.5144 3.514399,3.5144 h 35.144009 c 1.941702,0 3.5144,-1.57269 3.5144,-3.5144 v -3.51441 c 0,-1.9417 -1.572698,-3.5144 -3.5144,-3.5144 H 57.408409 c -1.941706,0 -3.514399,1.5727 -3.514399,3.5144 z m 21.086405,26.60621 c -3.60666,0 -7.213314,-1.11144 -10.292806,-3.33648 L 18.750001,151.85631 v 46.8162 c 0,5.82293 4.72028,10.54321 10.543205,10.54321 h 91.374414 c 5.82292,0 10.5432,-4.72028 10.5432,-10.54321 v -46.8162 l -45.937607,33.18473 c -3.079492,2.22285 -6.686145,3.33648 -10.292798,3.33648 z m 52.191045,-55.83064 c -1.9439,-1.52437 -3.78677,-2.9587 -6.50384,-5.01022 v -9.69536 c 0,-5.82292 -4.72027,-10.5432 -10.5432,-10.5432 H 93.090561 c -0.667738,-0.48324 -1.289349,-0.93572 -1.985638,-1.44091 -3.692318,-2.69511 -11.028631,-9.17918 -16.124508,-9.102299 -5.095885,-0.07688 -12.429995,6.407189 -16.124509,9.102299 -0.696289,0.50519 -1.317902,0.95767 -1.985639,1.44091 H 39.836405 c -5.822925,0 -10.543199,4.72028 -10.543199,10.5432 v 9.69536 c -2.717071,2.04932 -4.559937,3.48585 -6.50384,5.01022 a 10.542104,10.542104 0 0 0 -4.039365,8.29616 v 2.33929 l 21.086404,15.23273 V 117.8413 h 70.288015 v 40.57376 l 21.0864,-15.23273 v -2.33929 c 0,-3.23764 -1.48922,-6.29736 -4.03936,-8.29616 z"
       id="path943"
       style="stroke-width:0.21965" />
  </g>
</svg>
